ffmpeg version N-94334-gab4795a085 Copyright (c) 2000-2019 the FFmpeg developers
  built with gcc 9.1.1 (GCC) 20190716
  configuration: --enable-gpl --enable-version3 --enable-sdl2 --enable-fontconfig --enable-gnutls --enable-iconv --enable-libass --enable-libdav1d --enable-libbluray --enable-libfreetype --enable-libmp3lame --enable-libopencore-amrnb --enable-libopencore-amrwb --enable-libopenjpeg --enable-libopus --enable-libshine --enable-libsnappy --enable-libsoxr --enable-libtheora --enable-libtwolame --enable-libvpx --enable-libwavpack --enable-libwebp --enable-libx264 --enable-libx265 --enable-libxml2 --enable-libzimg --enable-lzma --enable-zlib --enable-gmp --enable-libvidstab --enable-libvorbis --enable-libvo-amrwbenc --enable-libmysofa --enable-libspeex --enable-libxvid --enable-libaom --enable-libmfx --enable-amf --enable-ffnvcodec --enable-cuvid --enable-d3d11va --enable-nvenc --enable-nvdec --enable-dxva2 --enable-avisynth --enable-libopenmpt
  libavutil      56. 30.100 / 56. 30.100
  libavcodec     58. 53.101 / 58. 53.101
  libavformat    58. 28.102 / 58. 28.102
  libavdevice    58.  7.100 / 58.  7.100
  libavfilter     7. 56.101 /  7. 56.101
  libswscale      5.  4.101 /  5.  4.101
  libswresample   3.  4.100 /  3.  4.100
  libpostproc    55.  4.100 / 55.  4.100
Splitting the commandline.
Reading option '-v' ... matched as option 'v' (set logging level) with argument 'debug'.
Reading option '-nostdin' ... matched as option 'stdin' (enable or disable interaction on standard input) with argument 0.
Reading option '-progress' ... matched as option 'progress' (write program-readable progress information) with argument 'C:/Users/Dragos/AppData/Local/Temp/KritaFFmpegProgress.rM8412'.
Reading option '-r' ... matched as option 'r' (set frame rate (Hz value, fraction or abbreviation)) with argument '6'.
Reading option '-start_number' ... matched as AVOption 'start_number' with argument '0'.
Reading option '-i' ... matched as input url with argument 'D:/Work/InsidAR/Code/InsidAR-landing-page/img/coarse%04d.png'.
Reading option '-vf' ... matched as option 'vf' (set video filters) with argument 'palettegen'.
Reading option '-y' ... matched as option 'y' (overwrite output files) with argument '1'.
Reading option 'D:/Work/InsidAR/Code/InsidAR-landing-page/img/palette.png' ... matched as output url.
Finished splitting the commandline.
Parsing a group of options: global .
Applying option v (set logging level) with argument debug.
Applying option nostdin (enable or disable interaction on standard input) with argument 0.
Applying option progress (write program-readable progress information) with argument C:/Users/Dragos/AppData/Local/Temp/KritaFFmpegProgress.rM8412.
[file @ 000001b98dafac80] Setting default whitelist 'file,crypto'
Applying option y (overwrite output files) with argument 1.
Successfully parsed a group of options.
Parsing a group of options: input url D:/Work/InsidAR/Code/InsidAR-landing-page/img/coarse%04d.png.
Applying option r (set frame rate (Hz value, fraction or abbreviation)) with argument 6.
Successfully parsed a group of options.
Opening an input file: D:/Work/InsidAR/Code/InsidAR-landing-page/img/coarse%04d.png.
[image2 @ 000001b98db3b840] Opening 'D:/Work/InsidAR/Code/InsidAR-landing-page/img/coarse0000.png' for reading
[file @ 000001b98db3ef80] Setting default whitelist 'file,crypto'
[AVIOContext @ 000001b98db47140] Statistics: 363533 bytes read, 0 seeks
[image2 @ 000001b98db3b840] Opening 'D:/Work/InsidAR/Code/InsidAR-landing-page/img/coarse0001.png' for reading
[file @ 000001b98dba0040] Setting default whitelist 'file,crypto'
[AVIOContext @ 000001b98dbaa040] Statistics: 363533 bytes read, 0 seeks
[image2 @ 000001b98db3b840] Opening 'D:/Work/InsidAR/Code/InsidAR-landing-page/img/coarse0002.png' for reading
[file @ 000001b98dbaa340] Setting default whitelist 'file,crypto'
[AVIOContext @ 000001b98dbaa040] Statistics: 369103 bytes read, 0 seeks
[image2 @ 000001b98db3b840] Opening 'D:/Work/InsidAR/Code/InsidAR-landing-page/img/coarse0003.png' for reading
[file @ 000001b98dbaa580] Setting default whitelist 'file,crypto'
[AVIOContext @ 000001b98dbaa040] Statistics: 369103 bytes read, 0 seeks
[image2 @ 000001b98db3b840] Opening 'D:/Work/InsidAR/Code/InsidAR-landing-page/img/coarse0004.png' for reading
[file @ 000001b98dbaa580] Setting default whitelist 'file,crypto'
[AVIOContext @ 000001b98dbaa040] Statistics: 370108 bytes read, 0 seeks
[image2 @ 000001b98db3b840] Opening 'D:/Work/InsidAR/Code/InsidAR-landing-page/img/coarse0005.png' for reading
[file @ 000001b98dbaa900] Setting default whitelist 'file,crypto'
[AVIOContext @ 000001b98dbaa040] Statistics: 370108 bytes read, 0 seeks
[image2 @ 000001b98db3b840] Opening 'D:/Work/InsidAR/Code/InsidAR-landing-page/img/coarse0006.png' for reading
[file @ 000001b98dbaaac0] Setting default whitelist 'file,crypto'
[AVIOContext @ 000001b98dbaa040] Statistics: 370372 bytes read, 0 seeks
[image2 @ 000001b98db3b840] Opening 'D:/Work/InsidAR/Code/InsidAR-landing-page/img/coarse0007.png' for reading
[file @ 000001b98dbaacc0] Setting default whitelist 'file,crypto'
[AVIOContext @ 000001b98dbaa040] Statistics: 370372 bytes read, 0 seeks
[image2 @ 000001b98db3b840] Opening 'D:/Work/InsidAR/Code/InsidAR-landing-page/img/coarse0008.png' for reading
[file @ 000001b98dbaae80] Setting default whitelist 'file,crypto'
[AVIOContext @ 000001b98dbaa040] Statistics: 364866 bytes read, 0 seeks
[image2 @ 000001b98db3b840] Opening 'D:/Work/InsidAR/Code/InsidAR-landing-page/img/coarse0009.png' for reading
[file @ 000001b98db45bc0] Setting default whitelist 'file,crypto'
[AVIOContext @ 000001b98dbaa040] Statistics: 364866 bytes read, 0 seeks
[image2 @ 000001b98db3b840] Opening 'D:/Work/InsidAR/Code/InsidAR-landing-page/img/coarse0010.png' for reading
[file @ 000001b98db45bc0] Setting default whitelist 'file,crypto'
[AVIOContext @ 000001b98dbaa040] Statistics: 359580 bytes read, 0 seeks
[image2 @ 000001b98db3b840] Opening 'D:/Work/InsidAR/Code/InsidAR-landing-page/img/coarse0011.png' for reading
[file @ 000001b98db45e40] Setting default whitelist 'file,crypto'
[AVIOContext @ 000001b98dbaa040] Statistics: 359580 bytes read, 0 seeks
[image2 @ 000001b98db3b840] Opening 'D:/Work/InsidAR/Code/InsidAR-landing-page/img/coarse0012.png' for reading
[file @ 000001b98db45e40] Setting default whitelist 'file,crypto'
[AVIOContext @ 000001b98dbaa040] Statistics: 401314 bytes read, 0 seeks
[image2 @ 000001b98db3b840] Opening 'D:/Work/InsidAR/Code/InsidAR-landing-page/img/coarse0013.png' for reading
[file @ 000001b98db45e40] Setting default whitelist 'file,crypto'
[AVIOContext @ 000001b98dbaa040] Statistics: 401314 bytes read, 0 seeks
[image2 @ 000001b98db3b840] Probe buffer size limit of 5000000 bytes reached
Input #0, image2, from 'D:/Work/InsidAR/Code/InsidAR-landing-page/img/coarse%04d.png':
  Duration: 00:00:00.64, start: 0.000000, bitrate: N/A
    Stream #0:0, 14, 1/25: Video: png, 1 reference frame, rgba(pc), 900x700 [SAR 11811:11811 DAR 9:7], 0/1, 25 fps, 25 tbr, 25 tbn, 25 tbc
Successfully opened the file.
Parsing a group of options: output url D:/Work/InsidAR/Code/InsidAR-landing-page/img/palette.png.
Applying option vf (set video filters) with argument palettegen.
Successfully parsed a group of options.
Opening an output file: D:/Work/InsidAR/Code/InsidAR-landing-page/img/palette.png.
Successfully opened the file.
detected 8 logical cores
Stream mapping:
  Stream #0:0 -> #0:0 (png (native) -> png (native))
cur_dts is invalid st:0 (0) [init:0 i_done:0 finish:0] (this is harmless if it occurs once at the start per stream)
    Last message repeated 8 times
[graph 0 input from stream 0:0 @ 000001b98db45280] Setting 'video_size' to value '900x700'
[graph 0 input from stream 0:0 @ 000001b98db45280] Setting 'pix_fmt' to value '26'
[graph 0 input from stream 0:0 @ 000001b98db45280] Setting 'time_base' to value '1/6'
[graph 0 input from stream 0:0 @ 000001b98db45280] Setting 'pixel_aspect' to value '11811/11811'
[graph 0 input from stream 0:0 @ 000001b98db45280] Setting 'sws_param' to value 'flags=2'
[graph 0 input from stream 0:0 @ 000001b98db45280] Setting 'frame_rate' to value '6/1'
[graph 0 input from stream 0:0 @ 000001b98db45280] w:900 h:700 pixfmt:rgba tb:1/6 fr:6/1 sar:11811/11811 sws_param:flags=2
[format @ 000001b98dbaa880] Setting 'pix_fmts' to value 'rgb24|rgba|rgb48be|rgba64be|pal8|gray|ya8|gray16be|ya16be|monob'
[auto_scaler_0 @ 000001b98dbaa540] Setting 'flags' to value 'bicubic'
[auto_scaler_0 @ 000001b98dbaa540] w:iw h:ih flags:'bicubic' interl:0
[Parsed_palettegen_0 @ 000001b98dbaae00] auto-inserting filter 'auto_scaler_0' between the filter 'graph 0 input from stream 0:0' and the filter 'Parsed_palettegen_0'
[auto_scaler_1 @ 000001b98dbb3100] Setting 'flags' to value 'bicubic'
[auto_scaler_1 @ 000001b98dbb3100] w:iw h:ih flags:'bicubic' interl:0
[format @ 000001b98dbaa880] auto-inserting filter 'auto_scaler_1' between the filter 'Parsed_palettegen_0' and the filter 'format'
[AVFilterGraph @ 000001b98dae3400] query_formats: 4 queried, 1 merged, 2 already done, 0 delayed
[auto_scaler_1 @ 000001b98dbb3100] picking rgba out of 10 ref:bgra alpha:1
[swscaler @ 000001b98e766000] Forcing full internal H chroma due to input having non subsampled chroma
[auto_scaler_0 @ 000001b98dbaa540] w:900 h:700 fmt:rgba sar:11811/11811 -> w:900 h:700 fmt:bgra sar:1/1 flags:0x4
[swscaler @ 000001b98e773e00] Forcing full internal H chroma due to input having non subsampled chroma
[auto_scaler_1 @ 000001b98dbb3100] w:16 h:16 fmt:bgra sar:1/1 -> w:16 h:16 fmt:rgba sar:1/1 flags:0x4
Output #0, image2, to 'D:/Work/InsidAR/Code/InsidAR-landing-page/img/palette.png':
  Metadata:
    encoder         : Lavf58.28.102
    Stream #0:0, 0, 1/6: Video: png, 1 reference frame, rgba, 16x16 [SAR 1:1 DAR 1:1], 0/1, q=2-31, 200 kb/s, 6 fps, 6 tbn, 6 tbc
    Metadata:
      encoder         : Lavc58.53.101 png
cur_dts is invalid st:0 (0) [init:1 i_done:0 finish:0] (this is harmless if it occurs once at the start per stream)
    Last message repeated 5 times
[image2 @ 000001b98db3b840] Opening 'D:/Work/InsidAR/Code/InsidAR-landing-page/img/coarse0014.png' for reading
[file @ 000001b98e3bc080] Setting default whitelist 'file,crypto'
[AVIOContext @ 000001b98dbaa640] Statistics: 401314 bytes read, 0 seeks
cur_dts is invalid st:0 (0) [init:1 i_done:0 finish:0] (this is harmless if it occurs once at the start per stream)
[image2 @ 000001b98db3b840] Opening 'D:/Work/InsidAR/Code/InsidAR-landing-page/img/coarse0015.png' for reading
[file @ 000001b98e3bbf80] Setting default whitelist 'file,crypto'
[AVIOContext @ 000001b98dbaa640] Statistics: 401314 bytes read, 0 seeks
cur_dts is invalid st:0 (0) [init:1 i_done:0 finish:0] (this is harmless if it occurs once at the start per stream)
    Last message repeated 8 times
[Parsed_palettegen_0 @ 000001b98dbaae00] 255(+1) colors generated out of 65667 colors; ratio=0.003883
cur_dts is invalid st:0 (0) [init:1 i_done:0 finish:0] (this is harmless if it occurs once at the start per stream)
Clipping frame in rate conversion by 0.000008
cur_dts is invalid st:0 (0) [init:1 i_done:0 finish:0] (this is harmless if it occurs once at the start per stream)
[out_0_0 @ 000001b98e3deec0] EOF on sink link out_0_0:default.
No more output streams to write to, finishing.
[image2 @ 000001b98e3a2900] Opening 'D:/Work/InsidAR/Code/InsidAR-landing-page/img/palette.png' for writing
[file @ 000001b98e3bc340] Setting default whitelist 'file,crypto'
[AVIOContext @ 000001b98dbaa140] Statistics: 0 seeks, 1 writeouts
frame=    1 fps=0.0 q=-0.0 Lsize=N/A time=00:00:00.16 bitrate=N/A speed=0.35x    
[AVIOContext @ 000001b98db3b6c0] Statistics: 0 seeks, 1 writeouts
video:1kB audio:0kB subtitle:0kB other streams:0kB global headers:0kB muxing overhead: unknown
Input file #0 (D:/Work/InsidAR/Code/InsidAR-landing-page/img/coarse%04d.png):
  Input stream #0:0 (video): 16 packets read (6000380 bytes); 16 frames decoded; 
  Total: 16 packets (6000380 bytes) demuxed
Output file #0 (D:/Work/InsidAR/Code/InsidAR-landing-page/img/palette.png):
  Output stream #0:0 (video): 1 frames encoded; 1 packets muxed (1015 bytes); 
  Total: 1 packets (1015 bytes) muxed
16 frames successfully decoded, 0 decoding errors
